<svg xmlns="http://www.w3.org/2000/svg" viewBox="0 0 64 64">
  <rect width="64" height="64" rx="14" fill="#0f172a"/>
  <path fill="#ffffff" d="M16 44V20h6.2l12 15.1V20H41v24h-6.1L22.7 28.8V44H16Z"/>
  <path fill="#00a878" d="M44.5 44c-3.6 0-6.3-1-8.2-3-1.9-2-2.8-4.9-2.8-8.7 0-3.7 1-6.7 3-8.9 2-2.2 4.8-3.3 8.4-3.3 2 0 3.8.3 5.3.9v5.5c-1.4-.7-3-1-4.8-1-1.8 0-3.1.5-4 1.6-.9 1.1-1.3 2.8-1.3 5.1 0 2.1.4 3.7 1.3 4.8.9 1.1 2.2 1.6 4 1.6.8 0 1.5-.1 2.1-.3v-4.2h-4v-5h10.3v12.8c-1.5 1.1-3.3 1.6-5.3 1.6Z"/>
</svg>
